<svg width="1220" height="250" viewBox="0 0 1220 250" fill="none" xmlns="http://www.w3.org/2000/svg">
<path d="M411.27 73.1299L377.16 176.05H356.87L331.43 99.8899L305.55 176.05H285.11L251 73.1299H270.85L296.43 151.35L323.04 73.1299H340.69L366.71 151.79L393.03 73.1299H411.27V73.1299Z" fill="white"/>
<path d="M474.2 73.1299H455.38L409.07 176.05H428.77L464.64 92.2399L500.67 176.05H520.66L474.2 73.1299Z" fill="white"/>
<path d="M549.48 89.2999H515.37V73.1299H602.71V89.2999H568.6V176.05H549.49V89.2999H549.48Z" fill="white"/>
<path d="M635.13 170.68C626.75 166.12 620.18 159.82 615.43 151.79C610.68 143.75 608.3 134.69 608.3 124.59C608.3 114.5 610.7 105.43 615.51 97.39C620.31 89.35 626.91 83.0499 635.29 78.4999C643.67 73.9399 653.05 71.6599 663.45 71.6599C671.88 71.6599 679.57 73.1299 686.53 76.0699C693.49 79.0099 699.37 83.2699 704.17 88.8599L691.82 100.48C684.37 92.4399 675.21 88.4199 664.33 88.4199C657.27 88.4199 650.95 89.9599 645.36 93.0499C639.77 96.1399 635.41 100.43 632.27 105.91C629.13 111.4 627.56 117.62 627.56 124.58C627.56 131.54 629.13 137.76 632.27 143.25C635.41 148.74 639.77 153.03 645.36 156.12C650.95 159.21 657.27 160.75 664.33 160.75C675.21 160.75 684.37 156.69 691.82 148.55L704.17 160.31C699.37 165.9 693.46 170.16 686.45 173.1C679.44 176.04 671.72 177.51 663.29 177.51C652.89 177.52 643.51 175.24 635.13 170.68Z" fill="white"/>
<path d="M813.99 73.1299V176.05H794.87V131.94H741.65V176.05H722.53V73.1299H741.65V115.62H794.87V73.1299H813.99Z" fill="white"/>
<path d="M845.75 73.1299H886.48C897.16 73.1299 906.65 75.3299 914.93 79.7499C923.21 84.1599 929.66 90.2599 934.27 98.0599C938.88 105.85 941.18 114.7 941.18 124.6C941.18 134.5 938.88 143.34 934.27 151.14C929.66 158.93 923.22 165.03 914.93 169.44C906.65 173.85 897.16 176.06 886.48 176.06H845.75V73.1299ZM885.89 169.29C895.4 169.29 903.78 167.4 911.03 163.63C918.28 159.86 923.87 154.59 927.79 147.83C931.71 141.07 933.67 133.32 933.67 124.6C933.67 115.88 931.71 108.13 927.79 101.37C923.87 94.6099 918.28 89.3399 911.03 85.5699C903.77 81.7999 895.39 79.9099 885.89 79.9099H853.25V169.31H885.89V169.29Z" fill="white"/>
<path d="M983.51 169.95C975.37 165.39 968.98 159.14 964.32 151.2C959.66 143.26 957.34 134.39 957.34 124.59C957.34 114.79 959.67 105.92 964.32 97.9799C968.98 90.0399 975.37 83.7899 983.51 79.2299C991.65 74.6699 1000.76 72.3899 1010.86 72.3899C1020.95 72.3899 1030.07 74.6498 1038.21 79.1498C1046.35 83.6598 1052.74 89.8799 1057.4 97.8199C1062.06 105.76 1064.39 114.68 1064.39 124.58C1064.39 134.48 1062.06 143.4 1057.4 151.34C1052.74 159.28 1046.35 165.51 1038.21 170.01C1030.07 174.52 1020.96 176.77 1010.86 176.77C1000.76 176.78 991.65 174.5 983.51 169.95ZM1034.24 163.99C1041.2 160.07 1046.69 154.65 1050.71 147.74C1054.73 140.83 1056.74 133.11 1056.74 124.58C1056.74 116.05 1054.73 108.33 1050.71 101.42C1046.69 94.5099 1041.2 89.0899 1034.24 85.1699C1027.28 81.2499 1019.49 79.2899 1010.86 79.2899C1002.23 79.2899 994.42 81.2499 987.41 85.1699C980.4 89.0899 974.89 94.5099 970.87 101.42C966.85 108.33 964.84 116.05 964.84 124.58C964.84 133.11 966.85 140.83 970.87 147.74C974.89 154.65 980.4 160.07 987.41 163.99C994.42 167.91 1002.23 169.87 1010.86 169.87C1019.49 169.87 1027.28 167.91 1034.24 163.99Z" fill="white"/>
<path d="M1163.92 125.03H1171.13V163.55C1166.62 167.87 1161.15 171.15 1154.74 173.4C1148.32 175.66 1141.53 176.78 1134.38 176.78C1124.18 176.78 1115 174.53 1106.81 170.02C1098.62 165.51 1092.2 159.29 1087.55 151.35C1082.89 143.41 1080.57 134.49 1080.57 124.59C1080.57 114.69 1082.9 105.77 1087.55 97.8299C1092.21 89.8899 1098.63 83.6699 1106.81 79.1599C1114.99 74.6499 1124.23 72.3999 1134.53 72.3999C1142.08 72.3999 1149.01 73.5999 1155.33 75.9999C1161.65 78.3999 1167.07 81.9099 1171.58 86.5099L1166.88 91.5099C1162.56 87.1999 1157.74 84.0899 1152.4 82.1699C1147.06 80.2599 1141.15 79.2999 1134.68 79.2999C1125.86 79.2999 1117.89 81.2599 1110.79 85.1799C1103.68 89.0999 1098.12 94.5199 1094.1 101.43C1090.08 108.34 1088.07 116.06 1088.07 124.59C1088.07 133.02 1090.1 140.69 1094.17 147.6C1098.24 154.51 1103.8 159.95 1110.86 163.92C1117.92 167.89 1125.86 169.87 1134.68 169.87C1146.44 169.87 1156.2 166.73 1163.94 160.46V125.03H1163.92Z" fill="white"/>
<path d="M1206.71 72.6L1203.85 71.13L1206.7 69.65C1213.97 65.87 1217.5 60.6 1217.5 53.54C1217.5 47.82 1215.38 43.2 1211.01 39.4C1206.63 35.59 1201 33.66 1194.26 33.66C1188.41 33.66 1183.38 35.27 1179.29 38.45C1175.64 41.3 1173.4 45.23 1172.48 50.43H1180.72C1182.02 46.99 1183.71 44.37 1185.75 42.66C1188.08 40.7 1191.19 39.71 1194.98 39.71C1199.03 39.71 1202.52 41.14 1205.35 43.96C1208.18 46.78 1209.62 50.27 1209.62 54.31C1209.62 58.34 1208.05 61.68 1204.97 64.25C1202.31 66.47 1198.75 67.74 1194.39 68.06V74.5C1200.24 74.88 1204.61 76.72 1207.39 79.98C1210.36 83.47 1211.87 87.36 1211.87 91.57C1211.87 95.69 1210.19 99.33 1206.89 102.39C1203.62 105.41 1199.4 106.5 1195 106.5C1186.82 106.5 1177.79 98 1174.91 90L1170.41 95.16C1172.04 101.11 1176 104 1179.5 107.5C1184.21 110.72 1189.52 113 1196.01 113C1202.45 113 1207.86 110.81 1212.55 106.31C1217.23 101.83 1219.5 96.69 1219.5 90.62C1219.52 82.93 1215.33 77.04 1206.71 72.6Z" fill="white"/>
<path d="M96.9987 103.447C103.558 105.208 109.47 99.755 108.483 93.2385C107.905 89.3848 104.749 86.2457 100.895 85.6672C94.3955 84.6634 88.9424 90.5843 90.6864 97.1519C91.4946 100.197 93.9531 102.647 96.9987 103.447Z" fill="white"/>
<path d="M111.138 0C102.248 7.40123 15.9594 40.6557 0 40.6642V109.079C0 117.68 0.901764 126.161 2.63723 134.405C6.32933 151.938 21.4636 165.558 39.3711 167.072C44.0926 167.472 48.8141 166.511 53.2718 164.877C61.5833 161.823 65.888 155.57 67.4107 147.08C68.7379 139.671 68.1253 131.955 66.9343 124.57C65.8199 117.688 64.2036 110.763 61.8641 104.187L58.9717 138.037C58.0699 148.552 49.3415 156.813 39.0309 156.813C38.3588 156.813 37.6697 156.778 36.9891 156.702C30.7874 156.047 24.1008 152.44 18.2734 142.827C14.0368 135.961 10.6169 128.977 10.2001 120.759C9.26429 101.729 20.0514 88.1938 34.2754 77.3812C49.1799 66.0496 67.096 58.1975 85.8287 56.4195C85.8287 56.4195 87.6918 56.2323 90.6948 56.2323C102.299 56.2323 127.037 59.363 132.414 85.8202L159.016 86.5264C159.416 91.5116 161.704 103.736 174.422 102.026C174.405 103.081 174.371 104.153 174.312 105.259C174.014 110.406 173.129 116.055 171.113 121.38C162.997 142.776 139.705 142.963 122.256 153.18C91.9539 170.926 80.0354 214.287 103.583 242.446C105.872 245.185 108.415 247.703 111.138 250L168.944 210.323C202.317 187.413 222.258 149.539 222.258 109.07V40.6557C206.324 40.6557 120.028 7.39272 111.138 0ZM207.039 109.079C207.039 144.545 189.582 177.698 160.334 197.775C160.334 197.775 115.68 228.426 115.672 228.426C92.711 190.45 128.092 161.279 143.814 158.573C143.848 158.565 143.89 158.556 143.924 158.556C148.195 158.029 152.244 157.102 155.987 155.792C156.387 155.664 156.702 155.545 156.923 155.46C170.347 150.526 180.182 140.606 185.363 126.765C187.676 120.649 189.08 113.715 189.523 106.152C190.22 94.1658 188.255 84.5612 188.025 83.5063L185.473 71.6303L173.325 71.4772L143.295 70.7286C134.243 52.1489 117.96 41.0045 90.6948 41.0045C87.1559 41.0045 84.8164 41.2172 84.3485 41.2597C63.6165 43.2334 43.1143 51.5279 25.0621 65.2499C20.5023 68.7124 16.3933 72.3534 12.7522 76.1391L15.2363 53.3144C29.2136 49.7754 47.9974 43.1738 63.5655 37.3549C74.5993 33.2204 97.3049 24.4836 111.146 17.5163C124.987 24.4836 147.684 33.2289 158.718 37.3549C174.278 43.1823 193.062 49.7839 207.039 53.3144V109.079V109.079Z" fill="white"/>
</svg>
